<?xml version="1.0" standalone="no"?>
<!DOCTYPE svg PUBLIC "-//W3C//DTD SVG 20010904//EN"
 "http://www.w3.org/TR/2001/REC-SVG-20010904/DTD/svg10.dtd">
<svg version="1.0" xmlns="http://www.w3.org/2000/svg"
 width="375.000000pt" height="367.000000pt" viewBox="0 0 375.000000 367.000000"
 preserveAspectRatio="xMidYMid meet">

<g transform="translate(0.000000,367.000000) scale(0.100000,-0.100000)"
fill="#000000" stroke="none">
<path d="M1615 3440 c-137 -22 -209 -41 -326 -85 -459 -176 -804 -524 -977
-987 -49 -131 -67 -205 -87 -351 -52 -402 41 -802 264 -1132 33 -50 69 -100
80 -112 22 -26 53 -30 71 -8 13 16 40 20 40 6 0 -15 116 -136 159 -166 l42
-28 -21 -22 c-38 -41 -26 -57 117 -153 139 -93 375 -191 544 -226 137 -28 280
-39 419 -33 254 11 470 66 691 178 95 47 258 156 266 176 3 8 -5 26 -18 40
l-24 25 35 26 c44 33 141 129 162 160 l16 24 30 -22 c36 -27 47 -22 100 45 97
123 203 321 257 479 110 325 110 727 -1 1051 -162 476 -523 850 -992 1029
-259 99 -571 131 -847 86z m450 -50 c167 -24 355 -77 475 -136 39 -19 73 -34
75 -34 3 0 40 -22 83 -48 258 -160 450 -362 584 -612 106 -197 170 -412 190
-633 26 -290 -46 -626 -189 -887 -57 -105 -137 -219 -153 -220 -8 0 -85 69
-169 154 l-154 154 47 75 c56 90 110 221 139 337 31 123 30 397 0 521 -58 232
-174 426 -346 583 -203 184 -414 274 -707 301 -155 14 -401 -34 -555 -108
-319 -154 -542 -430 -627 -776 -33 -129 -32 -399 1 -529 27 -110 83 -245 134
-325 20 -32 37 -60 37 -63 0 -7 -42 -43 -51 -44 -14 0 -106 171 -142 265 -42
111 -76 265 -78 353 -1 78 -11 106 -36 110 -30 4 -36 -24 -28 -121 18 -222
110 -487 212 -613 l33 -41 -25 -23 c-14 -13 -25 -18 -25 -11 0 7 -25 55 -56
106 -106 177 -166 373 -182 586 -5 79 -11 104 -24 112 -12 8 -21 7 -33 -3 -14
-11 -15 -26 -10 -89 17 -200 55 -353 124 -506 45 -99 120 -222 143 -232 16 -7
8 -18 -61 -87 -43 -43 -84 -76 -89 -72 -17 10 -85 115 -134 206 -235 436 -259
936 -65 1390 22 52 51 112 64 132 13 21 23 40 23 44 0 16 128 189 192 259 190
208 355 322 618 428 84 33 281 84 374 97 88 11 310 11 391 0z m85 -545 c195
-55 368 -157 504 -299 170 -177 266 -385 298 -648 20 -169 -14 -366 -95 -548
l-42 -95 -73 -8 c-70 -9 -73 -10 -100 -49 -45 -68 -124 -148 -182 -187 l-55
-36 -3 -62 -3 -61 -77 -35 c-287 -130 -612 -129 -899 4 l-83 38 0 53 c0 63 -6
73 -53 101 -57 34 -147 127 -179 183 -30 55 -49 64 -129 64 -46 0 -55 11 -105
133 -56 139 -77 250 -77 407 0 139 13 223 54 348 106 321 381 586 714 687 120
37 183 44 345 41 120 -3 161 -8 240 -31z m-1061 -1735 c18 -28 62 -73 97 -102
l64 -52 -137 -140 c-76 -78 -150 -151 -165 -164 l-28 -23 -44 30 c-49 34 -133
124 -150 160 -10 23 -1 34 153 183 91 87 167 158 170 158 3 0 21 -23 40 -50z
m1775 -129 l159 -160 -17 -26 c-42 -64 -164 -175 -193 -175 -15 0 -323 317
-323 332 0 3 8 9 18 13 23 7 111 90 146 138 16 20 34 37 40 37 6 0 83 -72 170
-159z m-1564 -172 c72 -44 201 -97 295 -121 57 -14 127 -21 245 -25 143 -4
179 -2 270 17 110 22 259 79 340 129 l48 30 130 -132 c72 -73 143 -147 158
-166 l28 -34 -29 -24 c-50 -40 -195 -118 -302 -162 -392 -161 -821 -161 -1218
1 -55 22 -120 52 -145 66 -97 56 -201 125 -198 133 7 20 301 319 314 319 7 0
36 -14 64 -31z"/>
<path d="M1777 3313 c-2 -5 -17 -54 -33 -110 -16 -57 -32 -103 -35 -103 -4 0
-33 43 -65 95 -31 53 -61 98 -66 101 -13 8 -60 -25 -56 -39 2 -7 41 -69 87
-139 67 -104 87 -128 106 -128 28 0 33 8 58 75 72 201 79 226 67 240 -13 16
-56 21 -63 8z"/>
<path d="M2024 3302 c-17 -11 -164 -251 -164 -267 0 -14 29 -35 49 -35 5 0 18
14 28 30 15 26 23 30 60 30 52 0 93 -15 93 -34 0 -7 8 -23 18 -34 13 -16 22
-18 40 -12 29 12 28 38 -4 125 -14 39 -35 97 -47 130 -20 58 -31 75 -52 75 -5
0 -15 -4 -21 -8z m20 -148 c10 -26 7 -34 -12 -34 -27 0 -32 9 -19 31 14 23 23
24 31 3z"/>
<path d="M2331 3237 c-6 -8 -33 -70 -61 -138 l-49 -124 21 -18 c12 -10 26 -16
32 -14 12 4 36 48 62 112 16 40 16 40 26 15 5 -14 19 -59 30 -100 24 -88 33
-102 65 -98 21 3 32 21 80 137 52 128 54 136 36 148 -10 8 -26 12 -37 11 -17
-3 -25 -17 -68 -128 -13 -33 -20 -19 -48 95 -12 50 -25 93 -29 96 -15 16 -49
19 -60 6z"/>
<path d="M1275 3201 c-53 -24 -85 -60 -95 -108 -24 -105 51 -203 155 -203 59
0 106 25 136 72 17 27 19 44 16 96 -4 53 -10 69 -33 94 -57 60 -120 77 -179
49z m89 -71 c14 -5 32 -23 41 -40 48 -92 -64 -172 -132 -94 -27 29 -29 63 -8
104 21 40 50 49 99 30z"/>
<path d="M2681 3038 c-11 -18 -28 -42 -38 -53 -28 -31 -103 -133 -109 -149 -6
-16 32 -47 50 -40 6 3 31 32 56 65 l45 60 3 -108 c3 -111 14 -143 51 -143 14
1 69 67 170 207 l25 34 -21 21 c-12 11 -28 18 -36 15 -8 -3 -35 -33 -60 -66
-25 -34 -49 -57 -52 -51 -4 6 -3 51 1 100 5 75 4 94 -10 115 -23 34 -50 32
-75 -7z"/>
<path d="M920 2998 c-45 -34 -84 -68 -87 -75 -7 -19 165 -243 187 -243 16 0
180 129 180 141 0 19 -21 49 -34 49 -7 0 -39 -20 -70 -45 -64 -50 -67 -50 -84
-33 -10 10 -3 21 34 53 42 37 46 43 35 63 -15 29 -37 28 -83 -4 -37 -26 -68
-27 -68 -2 1 7 28 33 60 57 60 45 71 66 48 89 -20 20 -33 15 -118 -50z"/>
<path d="M2909 2719 c-63 -50 -115 -95 -117 -99 -4 -10 136 -190 147 -190 7 0
51 38 51 44 0 1 -22 31 -50 67 -44 57 -48 65 -34 79 14 13 19 10 53 -29 39
-45 64 -51 85 -19 8 13 3 27 -23 63 -31 43 -32 48 -17 63 8 9 17 14 19 11 2
-2 23 -29 47 -59 59 -76 66 -79 98 -38 12 15 5 28 -58 108 -40 49 -76 90 -79
90 -4 0 -59 -41 -122 -91z"/>
<path d="M678 2769 c-100 -74 -88 -223 22 -279 51 -26 105 -25 155 3 60 34
103 125 77 163 -4 6 -29 28 -56 48 l-49 37 -33 -32 c-40 -39 -50 -65 -34 -84
16 -19 25 -19 44 1 19 18 56 10 56 -12 0 -28 -47 -64 -83 -64 -98 0 -129 122
-41 163 34 16 40 30 28 61 -8 22 -53 20 -86 -5z"/>
<path d="M370 1956 l0 -56 39 0 c50 0 63 18 20 27 -31 6 -31 7 -10 15 24 9 20
27 -7 29 -9 1 -4 4 12 8 44 9 37 26 -11 29 l-43 3 0 -55z"/>
<path d="M477 2004 c-15 -15 -6 -45 18 -56 29 -13 24 -29 -6 -21 -16 4 -20 2
-17 -8 3 -8 18 -14 34 -14 24 0 30 5 32 27 3 22 -2 29 -23 34 -25 6 -26 19 -2
19 7 0 13 5 15 10 3 12 -40 19 -51 9z"/>
<path d="M550 2000 c0 -5 9 -10 20 -10 17 0 20 -7 20 -45 0 -25 5 -45 10 -45
6 0 10 20 10 45 0 38 3 45 20 45 11 0 20 5 20 10 0 6 -22 10 -50 10 -27 0 -50
-4 -50 -10z"/>
<path d="M3082 1978 c-13 -13 -16 -38 -5 -38 3 0 15 7 25 17 30 27 23 -9 -7
-37 -14 -13 -25 -27 -25 -32 0 -12 78 -10 85 2 3 6 -4 10 -16 10 -21 0 -21 1
-6 18 28 31 15 72 -23 72 -9 0 -21 -5 -28 -12z"/>
<path d="M3174 1965 c-24 -37 -7 -80 32 -80 22 0 31 6 38 27 22 61 -36 105
-70 53z m46 -36 c0 -20 -4 -29 -12 -27 -15 5 -22 33 -14 54 9 24 26 6 26 -27z"/>
<path d="M3272 1978 c-14 -14 -16 -38 -3 -38 5 0 12 8 15 17 5 13 9 14 19 4 9
-10 6 -17 -15 -35 -40 -31 -36 -46 12 -46 22 0 40 5 40 10 0 6 -7 10 -17 10
-15 0 -15 1 0 18 28 31 15 72 -23 72 -9 0 -21 -5 -28 -12z"/>
<path d="M3358 1965 c-17 -38 0 -79 35 -83 22 -3 29 2 37 24 25 65 -44 121
-72 59z m52 -36 c0 -20 -4 -29 -12 -27 -15 5 -22 33 -14 54 9 24 26 6 26 -27z"/>
<path d="M646 1923 c-11 -11 -6 -23 9 -23 8 0 15 4 15 9 0 13 -16 22 -24 14z"/>
<path d="M374 1818 c-19 -31 7 -265 46 -418 21 -80 101 -283 123 -309 7 -9 24
-38 38 -65 32 -64 73 -108 93 -100 26 10 18 42 -29 119 -121 194 -215 502
-215 705 0 27 -3 55 -6 64 -7 19 -40 21 -50 4z"/>
<path d="M3100 1804 c-6 -14 -10 -49 -10 -77 0 -146 -67 -371 -157 -530 -45
-80 -53 -100 -43 -112 29 -35 49 -15 123 125 51 96 98 231 120 341 19 94 31
231 22 258 -9 30 -43 27 -55 -5z"/>
<path d="M3212 1818 c-6 -6 -12 -33 -12 -58 0 -202 -70 -441 -186 -636 -57
-96 -64 -121 -37 -131 26 -10 76 56 137 181 68 138 109 263 131 392 20 121 17
257 -5 262 -9 1 -21 -3 -28 -10z"/>
<path d="M3326 1814 c-3 -9 -6 -39 -6 -67 -1 -202 -95 -510 -215 -702 -46 -75
-55 -109 -31 -118 19 -7 37 9 73 63 76 116 146 274 182 412 39 145 65 386 47
417 -11 16 -43 13 -50 -5z"/>
<path d="M1782 2689 c-146 -18 -289 -74 -338 -132 -32 -38 -30 -63 7 -98 29
-27 30 -30 32 -129 1 -55 -1 -100 -5 -100 -4 0 -19 16 -34 36 -55 72 -153 95
-223 52 -67 -41 -111 -105 -164 -235 -29 -73 -31 -87 -32 -203 l0 -125 34 -54
c65 -100 148 -139 274 -127 141 14 132 16 135 -28 2 -27 11 -45 28 -58 32 -25
31 -63 -1 -84 -22 -14 -25 -23 -25 -75 l0 -59 561 0 560 0 -3 273 -3 272 -27
55 c-36 72 -77 121 -135 159 -38 26 -56 31 -105 31 l-58 0 1 183 1 182 35 32
c30 28 34 37 28 60 -10 42 -43 71 -120 108 -111 53 -291 80 -423 64z m283 -54
c106 -24 225 -89 225 -124 0 -14 -29 -41 -46 -41 -12 0 -14 -35 -14 -209 l0
-209 -27 -6 c-16 -3 -68 -12 -118 -21 -49 -8 -105 -19 -122 -24 l-33 -10 0 62
c0 76 -25 135 -71 168 -30 21 -44 24 -129 23 -72 -1 -108 -6 -150 -22 -30 -12
-56 -22 -57 -22 -2 0 -3 60 -3 134 l0 134 -25 6 c-62 16 -34 71 58 114 35 17
83 36 108 42 111 30 282 32 404 5z m-694 -358 c103 -69 196 -321 170 -463 -24
-126 -94 -192 -216 -201 -114 -9 -197 36 -241 131 -44 94 -27 252 42 390 74
151 159 201 245 143z m449 -80 c99 -50 91 -221 -22 -409 -69 -117 -153 -178
-242 -178 -75 0 -81 7 -45 48 55 62 72 115 72 217 0 84 -14 145 -58 257 -8 19
47 52 112 67 57 13 155 12 183 -2z m583 -198 c68 -45 118 -111 141 -186 l7
-23 -345 0 c-233 0 -346 3 -346 10 0 6 8 27 19 48 10 20 22 52 26 69 3 18 10
35 14 37 18 12 349 71 417 75 11 0 41 -13 67 -30z m117 -469 l0 -230 -507 2
-508 3 -3 24 c-2 15 6 33 22 50 41 43 44 82 7 123 -47 54 -42 64 33 70 87 7
163 51 224 129 l45 59 344 0 343 0 0 -230z"/>
<path d="M1245 2055 c-38 -10 -60 -24 -89 -57 -48 -53 -57 -79 -57 -147 0 -74
33 -137 95 -178 118 -80 276 -12 306 131 33 160 -100 292 -255 251z m146 -59
c38 -26 67 -75 76 -131 4 -25 -2 -49 -22 -90 -34 -70 -84 -100 -156 -93 -150
15 -204 209 -85 304 61 50 122 53 187 10z"/>
<path d="M2215 1715 c-46 -45 -21 -105 44 -105 65 0 96 65 51 110 -27 27 -66
25 -95 -5z m76 -21 c17 -21 0 -49 -32 -49 -18 0 -25 6 -27 24 -6 38 34 55 59
25z"/>
<path d="M1892 1625 c-38 -32 -46 -65 -28 -109 14 -35 59 -66 93 -66 31 0 79
36 92 69 39 93 -78 173 -157 106z m110 -22 c28 -25 24 -77 -8 -102 -15 -12
-33 -21 -41 -21 -23 0 -63 47 -63 75 0 54 71 85 112 48z"/>
<path d="M2430 1511 c-13 -25 -4 -48 21 -56 38 -12 65 35 37 63 -18 18 -46 14
-58 -7z"/>
<path d="M1677 1432 c-22 -25 -21 -75 1 -95 27 -25 78 -22 96 5 34 48 7 108
-48 108 -19 0 -40 -8 -49 -18z m78 -33 c5 -13 1 -27 -8 -36 -21 -21 -57 -8
-57 21 0 12 3 26 7 29 15 15 52 6 58 -14z"/>
<path d="M2190 1416 c-15 -19 -9 -56 11 -69 20 -13 65 -2 73 18 3 8 1 26 -4
40 -7 19 -17 25 -39 25 -15 0 -34 -7 -41 -14z m50 -31 c0 -8 -4 -15 -10 -15
-5 0 -10 7 -10 15 0 8 5 15 10 15 6 0 10 -7 10 -15z"/>
<path d="M930 935 c-16 -19 -16 -71 1 -91 8 -10 26 -14 53 -12 32 2 44 9 56
31 13 24 13 30 0 55 -12 21 -24 28 -56 30 -28 2 -45 -2 -54 -13z"/>
<path d="M2740 952 c-49 -15 -66 -74 -32 -105 42 -38 112 -10 112 45 0 37 -46
71 -80 60z"/>
<path d="M2446 642 c-3 -5 -8 -28 -12 -50 -4 -23 -8 -42 -9 -42 -1 0 -19 7
-38 15 -76 32 -84 15 -36 -76 21 -40 38 -59 50 -59 22 0 24 16 4 50 -21 36
-18 41 12 29 22 -8 30 -7 40 7 7 10 13 27 13 38 1 16 6 12 21 -16 18 -35 37
-47 52 -32 3 4 -10 37 -29 75 -31 63 -54 83 -68 61z"/>
<path d="M1275 564 c-33 -25 -61 -49 -63 -54 -5 -15 28 -24 40 -12 16 16 66
-13 70 -40 2 -13 10 -24 20 -26 13 -3 17 10 23 72 12 122 2 128 -90 60z m55
-34 c0 -5 -4 -10 -10 -10 -5 0 -10 5 -10 10 0 6 5 10 10 10 6 0 10 -4 10 -10z"/>
<path d="M2199 581 c-22 -18 -22 -20 -6 -26 19 -8 60 21 51 36 -8 14 -20 11
-45 -10z"/>
<path d="M1452 543 c-20 -38 -44 -125 -38 -138 8 -21 24 -18 31 6 10 30 37 19
47 -19 11 -41 32 -37 36 6 2 18 8 32 13 32 14 0 30 50 23 72 -3 11 -26 28 -51
39 -54 23 -50 23 -61 2z m52 -39 c23 -9 20 -44 -3 -44 -24 0 -33 13 -25 34 7
18 7 18 28 10z"/>
<path d="M2220 540 c-25 -10 -47 -25 -48 -34 -5 -24 39 -146 52 -145 32 2 111
38 111 50 0 15 -35 18 -72 5 -17 -5 -23 -3 -23 7 0 8 11 18 25 21 25 6 34 29
16 40 -5 4 -21 2 -35 -4 -17 -6 -27 -6 -32 1 -3 5 13 17 36 26 26 10 40 22 38
31 -4 22 -17 22 -68 2z"/>
<path d="M1605 498 c-12 -36 -24 -143 -16 -151 15 -15 30 1 37 38 3 19 10 35
15 35 5 0 9 -4 9 -8 0 -5 6 -17 14 -28 14 -19 15 -19 40 5 l26 24 0 -46 c0
-34 4 -47 14 -47 18 0 23 13 31 93 7 62 6 67 -12 67 -11 0 -30 -11 -43 -25
-13 -14 -27 -25 -32 -25 -4 0 -17 18 -28 40 -20 39 -46 52 -55 28z"/>
<path d="M2051 499 c-51 -10 -55 -13 -47 -34 4 -13 13 -15 36 -10 37 8 38 0 5
-64 -31 -63 -22 -73 58 -59 45 8 57 14 55 27 -3 12 -12 15 -41 13 l-37 -4 26
57 c26 55 26 86 2 84 -7 -1 -33 -5 -57 -10z"/>
<path d="M1855 423 c-34 -76 -42 -113 -24 -113 8 0 20 9 27 20 17 28 65 27 84
-2 13 -19 18 -21 31 -10 14 12 11 21 -23 85 -22 40 -46 73 -54 75 -11 2 -24
-16 -41 -55z m55 -34 c0 -5 -4 -9 -10 -9 -5 0 -10 7 -10 16 0 8 5 12 10 9 6
-3 10 -10 10 -16z"/>
</g>
</svg>
